<svg xmlns="http://www.w3.org/2000/svg" viewBox="139 230 758 759">
  <path d="M247.808 230.4h4.096c90.112-.683 179.541-1.024 268.288-1.024l270.336 1.024 10.24 2.048c19.797 4.779 36.864 13.312 51.2 25.6 21.163 17.067 35.157 40.277 41.984 69.632L896 337.92v542.72l-2.048 10.24c-4.096 17.067-11.605 33.109-22.528 48.128-17.749 23.893-41.643 39.595-71.68 47.104l-11.264 2.048H245.76l-10.24-2.048c-17.749-4.096-34.133-11.605-49.152-22.528-23.211-17.067-38.571-40.96-46.08-71.68l-2.048-11.264V337.92l2.048-11.264c4.096-19.115 12.288-36.181 24.576-51.2 20.48-24.576 48.128-39.595 82.944-45.056Zm31.744 83.968c-17.067 0-28.672 1.365-34.816 4.096-9.557 3.413-16.725 11.947-21.504 25.6l-1.024 26.624v26.624h82.944v-82.944Zm110.592 0v251.904h253.952V314.368Zm338.944 0v82.944h82.944v-26.624l-1.024-26.624c-2.048-6.144-4.437-10.923-7.168-14.336-4.779-6.827-11.947-11.605-21.504-14.336l-26.624-1.024Zm-506.88 167.936v83.968h82.944v-83.968Zm506.88 0v83.968h82.944v-83.968Zm-506.88 169.984v83.968h82.944v-83.968Zm167.936 0v251.904h253.952V652.288Zm338.944 0v83.968h82.944v-83.968Zm-506.88 195.584 1.024 26.624c2.048 6.144 4.437 10.923 7.168 14.336 4.779 6.827 11.947 11.605 21.504 14.336l26.624 1.024h26.624v-82.944h-82.944Zm506.88 14.336v41.984h26.624l26.624-1.024c10.24-3.413 19.115-10.923 26.624-22.528l2.048-6.144 1.024-26.624v-26.624h-82.944Z"/>
</svg>